# xmcd CD database file
#
# Track frame offsets:
#	150
#	23070
#	46615
#	61762
#	85575
#	106875
#	125820
#	148007
#	174085
#	198075
#	223390
#	264442
#
# Disc length: 4440 seconds
#
# Revision: 0
# Processed by: cddbd v1.5PL3 Copyright (c) Steve Scherf et al.
# Submitted via: CDex 1.50
#
DISCID=9c11560c
DTITLE=小谷美紗子 - night
DYEAR=2003
DGENRE=JPop
TTITLE0=Off you go
TTITLE1=Blink of stars
TTITLE2=Faint odor
TTITLE3=慰めうた
TTITLE4=Tellus Mater
TTITLE5=still have us
TTITLE6=60 seconds
TTITLE7=暁の星
TTITLE8=Over come
TTITLE9=今
TTITLE10=悪い赤
TTITLE11=cccd
EXTD=YEAR: 2003
EXTT0=
EXTT1=
EXTT2=
EXTT3=
EXTT4=
EXTT5=
EXTT6=
EXTT7=
EXTT8=
EXTT9=
EXTT10=
EXTT11=
PLAYORDER=
